<svg width="18" height="18" viewBox="0 0 18 18" fill="none" xmlns="http://www.w3.org/2000/svg">
<path d="M6.33333 7.99996V16.9999M6.33333 7.99996H2.42188C1.92405 7.99996 1.67539 7.99996 1.48524 8.10895C1.31799 8.20482 1.1821 8.35769 1.09688 8.54585C1 8.75976 1 9.04 1 9.60005V16.9999H6.33333M6.33333 7.99996V2.60009C6.33333 2.04004 6.33333 1.75981 6.43022 1.5459C6.51544 1.35773 6.65132 1.20487 6.81858 1.10899C7.00872 1 7.25738 1 7.75521 1H10.2441C10.7419 1 10.9914 1 11.1815 1.10899C11.3488 1.20487 11.4842 1.35773 11.5694 1.5459C11.6663 1.75981 11.6667 2.04004 11.6667 2.60009V4.99998M6.33333 16.9999H11.6667M11.6667 16.9999L17 17V6.60006C17 6.04001 16.9997 5.75978 16.9028 5.54587C16.8176 5.35771 16.6826 5.20484 16.5154 5.10897C16.3252 4.99998 16.0756 4.99998 15.5778 4.99998H11.6667M11.6667 16.9999V4.99998" stroke="#5179EF" stroke-width="2" stroke-linecap="round" stroke-linejoin="round"/>
</svg>
